
<svg xmlns="http://www.w3.org/2000/svg" version="1.1" xmlns:xlink="http://www.w3.org/1999/xlink" preserveAspectRatio="none" x="0px" y="0px" width="610px" height="400px" viewBox="0 0 610 400">
<defs>
<g id="___8_0_Layer1_0_FILL">
<path fill="#FFFFFF" fill-opacity="0" stroke="none" d="
M 40.3 65.2
Q 39.45 63 39.2 62.35 36.15 55.15 34.45 48.9 30.45 53.45 26.85 58.9 23.75 63.5 20.35 69.65
L 8.7 65.5 0 90.45 12.45 95
Q 11.7 102.7 12.1 111.25 12.45 118.55 13.7 127.4
L 1.65 131.95 11.65 156.85 24.1 152.3
Q 28.2 157.95 31.25 161.7 35.25 166.6 39.25 170.4 45.45 176.25 47.95 178.15 53.8 182.6 58.1 182.6 51.9 176.35 47.35 170.65 42.1 164.1 38.35 157.35 25.15 133.7 30.95 102.2 33.6 88.2 41.2 75.2 42.25 73.15 42.4 72 42.65 70.25 41.5 68 41 67 40.3 65.2
M 182.95 121.3
Q 183.6 114.55 183.9 111.25 182.1 115.55 178.6 124.05 175.4 131.35 172.15 136.3 157.35 158.8 129.4 166.1 107.55 171.8 75.15 168.55 75.15 168.95 75.05 177.25 75 182.5 74.8 185.95 74.65 187.85 74.85 189.15 75 190.2 75.15 190.15
L 78.65 190.85
Q 82.35 191.6 83.65 191.8 90.7 192.7 98.5 192.55 105.15 192.4 113.35 191.35
L 115.8 200.9 141.55 193.05 138.65 182.65
Q 143.25 180.5 147.6 177.5 151.45 174.8 155.7 171.05
L 165.65 179.35 183.1 159 172.7 150.25
Q 175.85 143.9 177.2 140.85 179.55 135.65 181 131.1 182.3 127.05 182.95 121.3
M 169.35 58.2
Q 166.15 53.75 164.9 51.9
L 172.8 42.35 152.85 25.3 144.55 34.85
Q 136.55 29.25 128.8 26.15
L 132.1 17.45 107.2 7.9 102.25 20.35 96.8 20.35
Q 84.65 20.9 82.55 21.2 74.05 22.3 69 25.75 73.75 24.75 80.4 24.85 85.85 24.95 91.85 25.75 104.4 27.4 113.5 30.6 124.7 34.5 132.8 41.35 140 47.4 146.9 57.55 149.1 60.8 151.45 65.55 154.1 70.8 154.95 74.2 155.25 75.15 156 75.05 160.75 74.65 166 72.25 172 69.5 173.65 66
L 173.2 64.75
Q 172.2 62.2 169.35 58.2 Z"/>
</g>

<g id="Layer2_0_FILL">
<path fill="#F8860B" stroke="none" d="
M 258.8 114
Q 256.55 119.4 255.6 124.75 253.9 134.1 256.7 145.3 257.5 148.4 258.55 151.3 261.05 158.45 265.05 164.1 269.2 169.95 271.9 174.9 273.7 178.25 274.8 181.2 276.4 185.2 276.45 190.5 276.55 193.5 276.3 199.75 276.65 199.65 276.95 199.5 278.8 198.5 281.2 195.8 281.95 194.85 285.1 190.7 288.15 186.6 288.9 185.5 291 182.5 292.3 180.1 292.85 179.05 293.35 178 297.5 168.95 296.45 158.85 295.95 154.85 294.75 151.35 292.4 144.55 287.15 139.6 285.25 137.8 278.7 132.5 278.05 132 277.4 131.55 273.05 127.9 270.55 125.15 266.6 120.65 264.8 115.35 263.7 112.1 263.7 109.2 263.65 106.65 264.45 104.35 261.3 108 258.8 114 Z"/>
</g>

<g id="Layer1_0_FILL">
<path fill="#F8860B" stroke="none" d="
M 504.15 183.25
Q 505.7 159.15 505.75 156.7 505.9 140.8 502.25 131 494.45 160.1 464.85 177.4 443.55 189.85 406.45 197.9 388.55 201.8 352.25 205.7 312.7 209.95 295.5 213.15 264.15 218.95 242.65 229.5 216.5 242.3 200.25 264 184.25 285.3 179.7 315.05 175.9 339.75 180 370.9 183.05 394.5 191.25 425 192.7 430.5 195.45 438.65 196.95 443.15 200 452.15 205.3 468.25 211.25 473 211.25 467.6 210.05 445.2 209.1 427.55 209.95 416.9 212.55 384.8 234.25 369 243.05 362.55 256 357.85 264.2 354.85 279.5 350.9 308 343.55 328.4 339.65 376.9 330.5 426.1 302.1 474.25 274.45 492.05 230.35 496.8 218.7 499.9 207.05 503.5 193.65 504.15 183.25 Z"/>
</g>
</defs>

<g transform="matrix( 1, 0, 0, 1, 213.85,93.85) ">
<g transform="matrix( 1, 0, 0, 1, 0,0) ">
<use xlink:href="#___8_0_Layer1_0_FILL"/>
</g>
</g>

<g transform="matrix( 1, 0, 0, 1, 0,0) ">
<use xlink:href="#Layer2_0_FILL"/>
</g>

<g transform="matrix( 0.415130615234375, 0, 0, 0.415130615234375, 191.8,92.35) ">
<use xlink:href="#Layer1_0_FILL"/>
</g>
</svg>
